<svg xmlns="http://www.w3.org/2000/svg" viewBox="-15.4 -102.2 429.54 134.4" width="1718" height="538" role="img" aria-label="MDS — Morgun Database Solutions">
  <title>MDS lockup (white, for dark backgrounds)</title>
  <g transform="translate(-23.31 -117.88) scale(2.59)">
    <path d="M14 47 V17 L32 35 L50 17 V47" fill="none" stroke="#ffffff" stroke-width="3.2" stroke-linejoin="round" stroke-linecap="round"/>
    <g fill="#ffffff">
      <circle cx="14" cy="17" r="5"/><circle cx="50" cy="17" r="5"/><circle cx="32" cy="35" r="5"/><circle cx="14" cy="47" r="5"/><circle cx="50" cy="47" r="5"/>
    </g>
  </g>
  <path d="M181.940 0L169.140 0L169.140-70L193.640-70L205.740-9L207.540-9L219.640-70L244.140-70L244.140 0L231.340 0L231.340-60.300L229.540-60.300L217.540 0L195.740 0L183.740-60.300L181.940-60.300L181.940 0M296.140 0L267.340 0L267.340-11.600L276.540-11.600L276.540-58.400L267.340-58.400L267.340-70L296.140-70Q310.240-70 317.590-62.850Q324.940-55.700 324.940-41.600L324.940-28.400Q324.940-14.300 317.590-7.150Q310.240 0 296.140 0M289.740-58L289.740-12L296.340-12Q304.340-12 308.040-16.200Q311.740-20.400 311.740-28L311.740-42Q311.740-49.700 308.040-53.850Q304.340-58 296.340-58L289.740-58M372.240 1.400Q364.140 1.400 357.940-1.500Q351.740-4.400 348.240-9.800Q344.740-15.200 344.740-22.800L344.740-25.600L357.740-25.600L357.740-22.800Q357.740-16.500 361.640-13.350Q365.540-10.200 372.240-10.200Q379.040-10.200 382.390-12.900Q385.740-15.600 385.740-19.800Q385.740-22.700 384.090-24.500Q382.440-26.300 379.290-27.450Q376.140-28.600 371.640-29.600L369.340-30.100Q362.140-31.700 356.990-34.150Q351.840-36.600 349.090-40.600Q346.340-44.600 346.340-51Q346.340-57.400 349.390-61.950Q352.440-66.500 357.990-68.950Q363.540-71.400 371.040-71.400Q378.540-71.400 384.390-68.850Q390.240-66.300 393.590-61.250Q396.940-56.200 396.940-48.600L396.940-45.600L383.940-45.600L383.940-48.600Q383.940-52.600 382.390-55.050Q380.840-57.500 377.940-58.650Q375.040-59.800 371.040-59.800Q365.040-59.800 362.190-57.550Q359.340-55.300 359.340-51.400Q359.340-48.800 360.690-47Q362.040-45.200 364.740-44Q367.440-42.800 371.640-41.900L373.940-41.400Q381.440-39.800 386.990-37.300Q392.540-34.800 395.640-30.700Q398.740-26.600 398.740-20.200Q398.740-13.800 395.490-8.950Q392.240-4.100 386.290-1.350Q380.340 1.400 372.240 1.400" fill="#ffffff"/>
</svg>
